<svg xmlns="http://www.w3.org/2000/svg" viewBox="0 0 100 100" aria-hidden="true">
  <path fill="currentColor" fill-rule="evenodd" d="M 78.82 86.47 L 74.12 86.47 L 72.94 85.29 L 71.76 85.29 L 68.82 82.35 L 68.82 81.18 L 67.65 80.00 L 67.65 78.82 L 66.47 77.65 L 66.47 75.29 L 65.29 74.12 L 65.29 54.12 L 66.47 52.94 L 66.47 51.76 L 65.88 51.18 L 64.12 52.94 L 64.12 54.12 L 60.59 57.65 L 60.59 58.82 L 56.47 62.94 L 55.29 62.94 L 54.12 64.12 L 45.88 64.12 L 44.71 62.94 L 43.53 62.94 L 39.41 58.82 L 39.41 57.65 L 37.06 55.29 L 37.06 54.12 L 36.47 53.53 L 35.88 54.12 L 35.88 67.06 L 34.71 68.24 L 34.71 71.76 L 33.53 72.94 L 33.53 74.12 L 32.35 75.29 L 32.35 76.47 L 31.18 77.65 L 31.18 78.82 L 25.88 84.12 L 24.71 84.12 L 23.53 85.29 L 16.47 85.29 L 11.18 80.00 L 11.18 78.82 L 10.00 77.65 L 10.00 67.06 L 11.76 65.29 L 12.94 65.29 L 14.71 67.06 L 14.71 74.12 L 15.88 75.29 L 15.88 76.47 L 18.82 79.41 L 21.18 79.41 L 22.35 78.24 L 23.53 78.24 L 26.47 75.29 L 26.47 74.12 L 27.65 72.94 L 27.65 71.76 L 28.82 70.59 L 28.82 68.24 L 30.00 67.06 L 30.00 63.53 L 31.18 62.35 L 31.18 43.53 L 32.35 42.35 L 32.35 37.65 L 33.53 36.47 L 33.53 35.29 L 34.71 34.12 L 34.71 32.94 L 35.29 32.35 L 37.65 32.35 L 38.24 32.94 L 38.24 41.18 L 39.41 42.35 L 39.41 45.88 L 40.59 47.06 L 40.59 49.41 L 41.76 50.59 L 41.76 51.76 L 42.94 52.94 L 42.94 54.12 L 47.06 58.24 L 47.65 57.65 L 47.65 49.41 L 48.82 48.24 L 48.82 29.41 L 48.24 28.82 L 37.65 28.82 L 35.88 27.06 L 37.65 25.29 L 40.00 25.29 L 41.18 24.12 L 48.24 24.12 L 50.00 22.35 L 50.00 15.29 L 51.18 14.12 L 51.18 12.94 L 51.76 12.35 L 52.94 12.35 L 53.53 12.94 L 53.53 23.53 L 54.12 24.12 L 60.00 24.12 L 61.18 22.94 L 63.53 22.94 L 64.71 24.12 L 65.88 24.12 L 66.47 24.71 L 66.47 28.24 L 65.88 28.82 L 54.12 28.82 L 53.53 29.41 L 53.53 56.47 L 54.12 57.06 L 60.59 50.59 L 60.59 49.41 L 64.12 45.88 L 64.12 44.71 L 66.47 42.35 L 66.47 41.18 L 68.82 38.82 L 68.82 37.65 L 70.59 35.88 L 71.76 35.88 L 73.53 37.65 L 73.53 40.00 L 72.35 41.18 L 72.35 44.71 L 71.18 45.88 L 71.18 51.76 L 70.00 52.94 L 70.00 68.24 L 71.18 69.41 L 71.18 71.76 L 72.35 72.94 L 72.35 75.29 L 73.53 76.47 L 73.53 77.65 L 75.29 79.41 L 76.47 79.41 L 77.65 80.59 L 78.82 80.59 L 80.00 79.41 L 81.18 79.41 L 82.35 78.24 L 83.53 78.24 L 86.47 75.29 L 86.47 74.12 L 87.65 72.94 L 87.65 69.41 L 90.59 66.47 L 92.35 68.24 L 92.35 72.94 L 91.18 74.12 L 91.18 76.47 L 90.00 77.65 L 90.00 78.82 L 85.88 82.94 L 84.71 82.94 L 83.53 84.12 L 82.35 84.12 L 81.18 85.29 L 80.00 85.29 L 78.82 86.47 Z"/>
</svg>
