<svg xmlns="http://www.w3.org/2000/svg" viewBox="0 0 100 100" role="img" aria-labelledby="title desc">
  <title id="title">Saturn alchemical currency symbol</title>
  <desc id="desc">Vector currency symbol extracted from the Econovaria alchemical symbols sheet.</desc>
  <path fill="currentColor" fill-rule="evenodd" d="M 25.88 88.82 L 24.12 87.06 L 24.12 85.88 L 25.29 84.71 L 25.29 83.53 L 27.65 81.18 L 27.65 80.00 L 30.00 77.65 L 30.00 76.47 L 32.35 74.12 L 32.35 72.94 L 38.24 67.06 L 38.24 65.88 L 47.06 57.06 L 51.76 52.35 L 52.94 52.35 L 58.24 47.06 L 57.65 46.47 L 45.88 46.47 L 44.71 47.65 L 32.94 47.65 L 30.00 44.71 L 30.00 25.88 L 28.24 24.12 L 20.00 24.12 L 17.06 21.18 L 18.82 19.41 L 21.18 19.41 L 22.35 18.24 L 28.24 18.24 L 28.82 17.65 L 28.82 10.59 L 27.65 9.41 L 27.65 4.71 L 28.24 4.12 L 31.76 4.12 L 32.35 4.71 L 32.35 5.88 L 33.53 7.06 L 33.53 11.76 L 34.71 12.94 L 34.71 17.65 L 35.29 18.24 L 44.71 18.24 L 46.47 20.00 L 46.47 23.53 L 44.71 25.29 L 36.47 25.29 L 35.88 25.88 L 35.88 40.00 L 36.47 40.59 L 60.00 40.59 L 61.18 39.41 L 80.00 39.41 L 81.76 41.18 L 81.76 44.71 L 81.18 45.29 L 80.00 45.29 L 78.82 46.47 L 75.29 46.47 L 74.12 47.65 L 71.76 47.65 L 70.59 48.82 L 69.41 48.82 L 68.24 50.00 L 67.06 50.00 L 64.71 52.35 L 63.53 52.35 L 61.18 54.71 L 60.00 54.71 L 54.12 60.59 L 52.94 60.59 L 40.59 72.94 L 40.59 74.12 L 31.18 83.53 L 31.18 84.71 L 28.24 87.65 L 27.06 87.65 L 25.88 88.82 Z"/>
</svg>
