<svg xmlns="http://www.w3.org/2000/svg" viewBox="0 0 100 100" aria-hidden="true">
  <path fill="currentColor" fill-rule="evenodd" d="M 32.10 88.27 L 28.40 88.27 L 26.54 86.42 L 26.54 83.95 L 30.25 80.25 L 30.25 79.01 L 32.72 76.54 L 32.72 75.31 L 35.19 72.84 L 35.19 71.60 L 38.89 67.90 L 38.89 66.67 L 41.36 64.20 L 41.36 62.96 L 43.83 60.49 L 43.83 59.26 L 45.06 58.02 L 44.44 57.41 L 37.04 57.41 L 35.80 58.64 L 25.93 58.64 L 24.69 59.88 L 19.75 59.88 L 19.14 59.26 L 19.14 54.32 L 24.07 49.38 L 24.07 48.15 L 30.25 41.98 L 30.25 40.74 L 33.95 37.04 L 33.95 35.80 L 38.89 30.86 L 38.89 29.63 L 40.12 28.40 L 39.51 27.78 L 17.28 27.78 L 15.43 25.93 L 17.28 24.07 L 29.63 24.07 L 30.86 22.84 L 41.98 22.84 L 43.21 21.60 L 45.68 21.60 L 46.30 20.99 L 46.30 19.75 L 48.77 17.28 L 48.77 16.05 L 52.47 12.35 L 52.47 11.11 L 54.94 8.64 L 54.94 7.41 L 58.02 4.32 L 64.20 4.32 L 64.81 4.94 L 63.58 6.17 L 63.58 7.41 L 61.11 9.88 L 61.11 11.11 L 58.64 13.58 L 58.64 14.81 L 54.94 18.52 L 54.94 19.75 L 53.70 20.99 L 54.32 21.60 L 55.56 20.37 L 65.43 20.37 L 66.67 19.14 L 76.54 19.14 L 77.78 17.90 L 79.01 17.90 L 80.86 19.75 L 80.86 23.46 L 74.69 29.63 L 74.69 30.86 L 69.75 35.80 L 69.75 37.04 L 64.81 41.98 L 64.81 43.21 L 61.11 46.91 L 61.11 48.15 L 58.64 50.62 L 59.26 51.23 L 67.90 51.23 L 69.14 50.00 L 77.78 50.00 L 79.01 51.23 L 82.72 51.23 L 83.33 51.85 L 83.33 53.09 L 82.72 53.70 L 75.31 53.70 L 74.07 54.94 L 60.49 54.94 L 59.26 56.17 L 54.32 56.17 L 53.70 56.79 L 53.70 58.02 L 50.00 61.73 L 50.00 62.96 L 47.53 65.43 L 47.53 66.67 L 43.83 70.37 L 43.83 71.60 L 41.36 74.07 L 41.36 75.31 L 38.89 77.78 L 38.89 79.01 L 36.42 81.48 L 36.42 82.72 L 32.72 86.42 L 32.72 87.65 L 32.10 88.27 Z M 40.12 51.85 L 40.74 51.23 L 49.38 51.23 L 54.94 45.68 L 54.94 44.44 L 58.64 40.74 L 58.64 39.51 L 63.58 34.57 L 63.58 33.33 L 68.52 28.40 L 68.52 27.16 L 69.75 25.93 L 69.14 25.31 L 64.20 25.31 L 62.96 26.54 L 49.38 26.54 L 48.77 27.16 L 48.77 28.40 L 45.06 32.10 L 45.06 33.33 L 41.36 37.04 L 41.36 38.27 L 36.42 43.21 L 36.42 44.44 L 30.25 50.62 L 30.25 51.85 L 30.86 52.47 L 39.51 52.47 L 40.12 51.85 Z"/>
</svg>
