<svg viewBox="0 0 32 32" xmlns="http://www.w3.org/2000/svg" width="300" height="300" version="1.1" xmlns:xlink="http://www.w3.org/1999/xlink" xmlns:svgjs="http://svgjs.dev/svgjs"><g width="100%" height="100%" transform="matrix(1,0,0,1,0,0)"><g id="Layer"><path d="m19.82 28.48a1 1 0 0 1 -.77 1.19 14.24 14.24 0 0 1 -3.05.33 14 14 0 0 1 -10.69-23h-2.31a1 1 0 0 1 0-2h5a1 1 0 0 1 1 1v5a1 1 0 0 1 -2 0v-2.91a12 12 0 0 0 9 19.91 12.32 12.32 0 0 0 2.63-.29 1 1 0 0 1 1.19.77zm-2.82-17.97v4.7l.68.16a3.86 3.86 0 0 1 2.9 4.33 4.65 4.65 0 0 1 -3.58 3.84v.46a1 1 0 0 1 -2 0v-.44a4.69 4.69 0 0 1 -3.66-3.72 1 1 0 1 1 2-.37 2.69 2.69 0 0 0 1.69 2v-4.7l-.68-.16a3.86 3.86 0 0 1 -2.9-4.33 4.65 4.65 0 0 1 3.55-3.82v-.46a1 1 0 0 1 2 0v.44a4.69 4.69 0 0 1 3.66 3.72 1 1 0 0 1 -2 .37 2.69 2.69 0 0 0 -1.66-2.02zm0 6.76v4.18a2.67 2.67 0 0 0 1.61-2.06 1.86 1.86 0 0 0 -1.39-2.07zm-2-2.54v-4.18a2.67 2.67 0 0 0 -1.61 2.06 1.86 1.86 0 0 0 1.39 2.07zm14 10.27h-2.31a14 14 0 0 0 -10.69-23 14.24 14.24 0 0 0 -3 .33 1 1 0 1 0 .43 2 12.16 12.16 0 0 1 2.57-.33 12 12 0 0 1 9 19.91v-2.91a1 1 0 0 0 -2 0v5a1 1 0 0 0 1 1h5a1 1 0 0 0 0-2z" fill="#9eecfa" fill-opacity="1" data-original-color="#212121ff" stroke="none" stroke-opacity="1"/></g></g></svg>