<svg class="admin-terminal-bank-account-svg" id="Layer_3" height="300" viewBox="0 0 64 64" width="300" xmlns="http://www.w3.org/2000/svg" data-name="Layer 3" version="1.1" xmlns:xlink="http://www.w3.org/1999/xlink" xmlns:svgjs="http://svgjs.dev/svgjs" opacity="0.92"><g width="100%" height="100%" transform="matrix(1,0,0,1,0,0)"><path d="m49 49h-.171a2.978 2.978 0 0 0 -2.122.879l-1.121 1.121h-2.586v2h3a1 1 0 0 0 .707-.293l1.414-1.414a1 1 0 0 1 .708-.293h.171a1 1 0 0 1 1 1 1 1 0 0 0 1 1h4v-2h-3.171a3.006 3.006 0 0 0 -2.829-2z" fill="#9DECFA" fill-opacity="1" data-original-color="#000000ff" stroke="none" stroke-opacity="1"/><path d="m57 51h2v2h-2z" fill="#9DECFA" fill-opacity="1" data-original-color="#000000ff" stroke="none" stroke-opacity="1"/><path d="m14 25a9 9 0 1 0 9 9 9.01 9.01 0 0 0 -9-9zm0 16a7 7 0 1 1 7-7 7.008 7.008 0 0 1 -7 7z" fill="#9DECFA" fill-opacity="1" data-original-color="#000000ff" stroke="none" stroke-opacity="1"/><path d="m14 31a1 1 0 0 1 1 1h2a3 3 0 0 0 -2-2.816v-1.184h-2v1.184a2.993 2.993 0 0 0 1 5.816 1 1 0 1 1 -1 1h-2a3 3 0 0 0 2 2.816v1.184h2v-1.184a2.993 2.993 0 0 0 -1-5.816 1 1 0 0 1 0-2z" fill="#9DECFA" fill-opacity="1" data-original-color="#000000ff" stroke="none" stroke-opacity="1"/><path d="m5 50h10v2h-10z" fill="#9DECFA" fill-opacity="1" data-original-color="#000000ff" stroke="none" stroke-opacity="1"/><path d="m17 50h2v2h-2z" fill="#9DECFA" fill-opacity="1" data-original-color="#000000ff" stroke="none" stroke-opacity="1"/><path d="m23 50h10v2h-10z" fill="#9DECFA" fill-opacity="1" data-original-color="#000000ff" stroke="none" stroke-opacity="1"/><path d="m35 50h2v2h-2z" fill="#9DECFA" fill-opacity="1" data-original-color="#000000ff" stroke="none" stroke-opacity="1"/><path d="m63 11.535a4.536 4.536 0 0 0 -7.743-3.207l-12.671 12.672h-40.586a1 1 0 0 0 -1 1v34a1 1 0 0 0 1 1h60a1 1 0 0 0 1-1v-34a1 1 0 0 0 -1-1h-6.586l6.257-6.258a4.5 4.5 0 0 0 1.329-3.207zm-25.505 18.374 2.6 2.6-3.635 1.039zm-1.2-2.616a.992.992 0 0 0 -.254.433l-2 7a1 1 0 0 0 .959 1.274 1.036 1.036 0 0 0 .275-.038l7-2a1.006 1.006 0 0 0 .432-.255l6.707-6.707h7.586v14h-30v-14h9.586zm5.705 4.293-3.586-3.586 12.586-12.586 3.586 3.586zm10.414-17.586 1.586-1.586 3.586 3.586-1.586 1.586zm-49.414 33h36v8h-36zm38 8v-8h20v8zm20-32v22h-58v-22h37.586l-2 2h-12.586a1 1 0 0 0 -1 1v16a1 1 0 0 0 1 1h32a1 1 0 0 0 1-1v-16a1 1 0 0 0 -1-1h-6.586l2-2zm-.743-9.672-1.257 1.258-3.586-3.586 1.257-1.258a2.536 2.536 0 1 1 3.586 3.586z" fill="#9DECFA" fill-opacity="1" data-original-color="#000000ff" stroke="none" stroke-opacity="1"/><path d="m29 37h20v2h-20z" fill="#9DECFA" fill-opacity="1" data-original-color="#000000ff" stroke="none" stroke-opacity="1"/><path d="m51 37h4v2h-4z" fill="#9DECFA" fill-opacity="1" data-original-color="#000000ff" stroke="none" stroke-opacity="1"/></g></svg>