<svg class="admin-terminal-bank-account-svg" xmlns="http://www.w3.org/2000/svg" xmlns:xlink="http://www.w3.org/1999/xlink" version="1.1" id="Capa_1" x="0px" y="0px" viewBox="0 0 512 512" style="enable-background:new 0 0 512 512;" xml:space="preserve" width="300" height="300" xmlns:svgjs="http://svgjs.dev/svgjs" opacity="0.92"><g width="100%" height="100%" transform="matrix(1,0,0,1,0,0)"><g id="XMLID_431_">
	
		<path id="XMLID_432_" style="stroke-linecap: round; stroke-linejoin: round; stroke-miterlimit: 10;" d="&#10;&#9;&#9;M331.196,140.099c10.543,2.671,20.714,5.984,30.424,9.89c13.103-15.282,33.205-24.52,54.652-24.52&#10;&#9;&#9;c5.502,0,11.085,0.602,16.658,1.868l-14.76,56.118c21.668,18.224,37.874,40.374,46.589,64.914H502v83.62h-37.241&#10;&#9;&#9;c-13.043,36.719-42.844,68.117-82.666,88.962v55.948h-49.963v-36.87c-20.403,5.251-42.242,8.103-64.944,8.103&#10;&#9;&#9;c-26.458,0-51.73-3.856-74.945-10.904v39.671h-49.963v-61.53C93.67,386.49,62.343,341.156,62.343,290.179&#10;&#9;&#9;c0-48.798,28.697-92.426,73.79-121.403" fill="none" fill-opacity="1" stroke="#9DECFA" stroke-opacity="1" data-original-stroke-color="#000000ff" stroke-width="20" data-original-stroke-width="20"/>
	
		<path id="XMLID_433_" style="stroke-linecap: round; stroke-linejoin: round; stroke-miterlimit: 10;" d="&#10;&#9;&#9;M62.34,265.869L62.34,265.869c-28.907,0-52.34-23.434-52.34-52.34v-20.936" fill="none" fill-opacity="1" stroke="#9DECFA" stroke-opacity="1" data-original-stroke-color="#000000ff" stroke-width="20" data-original-stroke-width="20"/>
	
		<circle style="stroke-linecap: round; stroke-linejoin: round; stroke-miterlimit: 10;" cx="230.898" cy="135.51" r="100.408" fill="none" fill-opacity="1" stroke="#9DECFA" stroke-opacity="1" data-original-stroke-color="#000000ff" stroke-width="20" data-original-stroke-width="20"/>
	<path style="stroke-linecap: round; stroke-linejoin: round; stroke-miterlimit: 10;" d="&#10;&#9;&#9;M247.989,97.621c-1.503-1.394-9.412-9-24.72-4.455c-13.659,4.489-17.186,22.985-7.831,30.323&#10;&#9;&#9;c5.372,4.213,13.455,7.677,24.349,11.528c24.381,8.618,15.368,43.002-9.433,43.167c-9.678,0.065-14.204-0.55-22.705-6.112" fill="none" fill-opacity="1" stroke="#9DECFA" stroke-opacity="1" data-original-stroke-color="#000000ff" stroke-width="20" data-original-stroke-width="20"/>
	
		<line style="stroke-linecap: round; stroke-linejoin: round; stroke-miterlimit: 10;" x1="230.355" y1="195.755" x2="230.355" y2="178.185" fill="none" fill-opacity="1" stroke="#9DECFA" stroke-opacity="1" data-original-stroke-color="#000000ff" stroke-width="20" data-original-stroke-width="20"/>
	
		<line style="stroke-linecap: round; stroke-linejoin: round; stroke-miterlimit: 10;" x1="230.355" y1="91.821" x2="230.355" y2="75.265" fill="none" fill-opacity="1" stroke="#9DECFA" stroke-opacity="1" data-original-stroke-color="#000000ff" stroke-width="20" data-original-stroke-width="20"/>
	
		<line id="XMLID_434_" style="stroke-linecap: round; stroke-linejoin: round; stroke-miterlimit: 10;" x1="126.474" y1="235.918" x2="341.347" y2="235.918" fill="none" fill-opacity="1" stroke="#9DECFA" stroke-opacity="1" data-original-stroke-color="#000000ff" stroke-width="20" data-original-stroke-width="20"/>
	
		<line id="XMLID_435_" style="stroke-linecap: round; stroke-linejoin: round; stroke-miterlimit: 10;" x1="391.551" y1="235.918" x2="391.551" y2="235.918" fill="none" fill-opacity="1" stroke="#9DECFA" stroke-opacity="1" data-original-stroke-color="#000000ff" stroke-width="20" data-original-stroke-width="20"/>
</g></g></svg>