<svg xmlns="http://www.w3.org/2000/svg" viewBox="0 0 100 100" role="img" aria-hidden="true" focusable="false"><path fill="#9decfa" d="M 32.61 89.67 L 30.43 89.67 L 29.89 89.13 L 29.89 85.87 L 30.98 84.78 L 30.98 83.70 L 33.15 81.52 L 33.15 80.43 L 38.59 75.00 L 38.59 73.91 L 45.11 67.39 L 45.11 66.30 L 47.83 63.59 L 48.91 63.59 L 53.26 59.24 L 54.35 59.24 L 57.61 55.98 L 58.70 55.98 L 60.87 53.80 L 61.96 53.80 L 64.13 51.63 L 65.22 51.63 L 65.76 51.09 L 65.22 50.54 L 52.17 50.54 L 51.09 51.63 L 39.13 51.63 L 37.50 50.00 L 37.50 41.30 L 36.41 40.22 L 36.41 29.35 L 35.87 28.80 L 29.35 28.80 L 27.72 27.17 L 27.72 25.00 L 28.26 24.46 L 29.35 24.46 L 30.43 23.37 L 36.96 23.37 L 37.50 22.83 L 37.50 13.04 L 38.59 11.96 L 38.59 9.78 L 39.13 9.24 L 40.22 9.24 L 40.76 9.78 L 40.76 10.87 L 41.85 11.96 L 41.85 22.83 L 42.39 23.37 L 52.17 23.37 L 53.80 25.00 L 53.80 27.17 L 52.17 28.80 L 43.48 28.80 L 42.93 29.35 L 42.93 43.48 L 44.57 45.11 L 48.91 45.11 L 50.00 44.02 L 63.04 44.02 L 64.13 42.93 L 75.00 42.93 L 75.54 43.48 L 75.54 53.26 L 73.91 54.89 L 72.83 54.89 L 71.74 55.98 L 70.65 55.98 L 68.48 58.15 L 67.39 58.15 L 65.22 60.33 L 64.13 60.33 L 60.87 63.59 L 59.78 63.59 L 54.35 69.02 L 53.26 69.02 L 47.83 74.46 L 46.74 74.46 L 40.76 80.43 L 40.76 81.52 L 32.61 89.67 Z"/></svg>
