<svg xmlns="http://www.w3.org/2000/svg" id="Layer_1" data-name="Layer 1" viewBox="0 0 48 48" width="300" height="300" version="1.1" xmlns:xlink="http://www.w3.org/1999/xlink" xmlns:svgjs="http://svgjs.dev/svgjs"><g width="100%" height="100%" transform="matrix(1,0,0,1,0,0)"><path d="M40,45H8a1,1,0,0,1-1-1V4A1,1,0,0,1,8,3H35a.99941.99941,0,0,1,.76807.35986l5,6A.99931.99931,0,0,1,41,10V44A1,1,0,0,1,40,45ZM9,43H39V10.36182L34.53174,5H9Z" fill="#ffffff" fill-opacity="1" data-original-color="#000000ff" stroke="none" stroke-opacity="1"/><path d="M31,39.875A.87481.87481,0,0,1,30.125,39V28a.875.875,0,0,1,1.75,0V39A.87481.87481,0,0,1,31,39.875Z" fill="#ffffff" fill-opacity="1" data-original-color="#000000ff" stroke="none" stroke-opacity="1"/><path d="M31,34.375a3.168,3.168,0,0,1-3.3501-2.9375A3.168,3.168,0,0,1,31,28.5a3.168,3.168,0,0,1,3.3501,2.9375.875.875,0,0,1-1.75,0c0-.64355-.73291-1.1875-1.6001-1.1875s-1.6001.54395-1.6001,1.1875S30.13281,32.625,31,32.625a.875.875,0,0,1,0,1.75Z" fill="#ffffff" fill-opacity="1" data-original-color="#000000ff" stroke="none" stroke-opacity="1"/><path d="M31,38.5a3.168,3.168,0,0,1-3.3501-2.9375.875.875,0,0,1,1.75,0c0,.64355.73291,1.1875,1.6001,1.1875s1.6001-.544,1.6001-1.1875S31.86719,34.375,31,34.375a.875.875,0,0,1,0-1.75,3.168,3.168,0,0,1,3.3501,2.9375A3.168,3.168,0,0,1,31,38.5Z" fill="#ffffff" fill-opacity="1" data-original-color="#000000ff" stroke="none" stroke-opacity="1"/><path d="M22,39H14a1,1,0,0,1,0-2h8a1,1,0,0,1,0,2Z" fill="#ffffff" fill-opacity="1" data-original-color="#000000ff" stroke="none" stroke-opacity="1"/><path d="M34,25H14a1,1,0,0,1,0-2H34a1,1,0,0,1,0,2Z" fill="#ffffff" fill-opacity="1" data-original-color="#000000ff" stroke="none" stroke-opacity="1"/><path d="M34,16H14a1,1,0,0,1,0-2H34a1,1,0,0,1,0,2Z" fill="#ffffff" fill-opacity="1" data-original-color="#000000ff" stroke="none" stroke-opacity="1"/><path d="M34,20.5H14a1,1,0,0,1,0-2H34a1,1,0,0,1,0,2Z" fill="#ffffff" fill-opacity="1" data-original-color="#000000ff" stroke="none" stroke-opacity="1"/><path d="M24,11.5H14a1,1,0,0,1,0-2H24a1,1,0,0,1,0,2Z" fill="#ffffff" fill-opacity="1" data-original-color="#000000ff" stroke="none" stroke-opacity="1"/><path d="M40,12H34a1,1,0,0,1-1-1V4a1,1,0,0,1,2,0v6h5a1,1,0,0,1,0,2Z" fill="#ffffff" fill-opacity="1" data-original-color="#000000ff" stroke="none" stroke-opacity="1"/></g></svg>