<svg id="Capa_1" enable-background="new 0 0 483 483" height="300" viewBox="0 0 483 483" width="300" xmlns="http://www.w3.org/2000/svg" version="1.1" xmlns:xlink="http://www.w3.org/1999/xlink" xmlns:svgjs="http://svgjs.dev/svgjs"><g width="100%" height="100%" transform="matrix(1,0,0,1,0,0)"><g><path d="m449.373 0h-415.746l-29.289 151.019c-.43 21.543 9.012 41.334 24.162 54.524v277.457h426v-277.458c15.15-13.189 24.592-32.982 24.162-54.524zm-85.873 453h-75v-126h75zm61 0h-31v-156h-135v156h-200v-231.94c26.505 6.782 56.199-4.331 71.919-25.158 27.389 35.936 83.727 35.909 111.081-.033 27.383 35.968 83.712 35.953 111.081 0 15.711 20.84 45.409 31.981 71.919 25.191zm-16.378-260c-22.354 0-40.541-18.187-40.541-40.541h-30c-2.233 53.796-78.868 53.754-81.081 0h-30c-2.233 53.796-78.868 53.754-81.081 0h-30c-2.078 52.996-77.314 54.093-81.06 1.33l24.009-123.789h366.265l24.008 123.79c-.704 21.741-18.61 39.21-40.519 39.21z" fill="#ffffff" fill-opacity="1" data-original-color="#000000ff" stroke="none" stroke-opacity="1"/><path d="m88.5 400h140v-134h-140zm30-104h80v74h-80z" fill="#ffffff" fill-opacity="1" data-original-color="#000000ff" stroke="none" stroke-opacity="1"/></g></g></svg>