<svg xmlns="http://www.w3.org/2000/svg" height="300" version="1.1" viewBox="-30 0 512 512" width="300" xmlns:xlink="http://www.w3.org/1999/xlink" xmlns:svgjs="http://svgjs.dev/svgjs"><g width="100%" height="100%" transform="matrix(1,0,0,1,0,0)"><g id="surface1">
<path d="M 75.546875 175.417969 L 255.546875 175.417969 L 255.546875 205.417969 L 75.546875 205.417969 Z M 75.546875 175.417969 " style="fill-rule: nonzero;" fill="#ffffff" fill-opacity="1" data-original-color="#000000ff" stroke="none" stroke-opacity="1"/>
<path d="M 75.546875 236.417969 L 255.546875 236.417969 L 255.546875 266.417969 L 75.546875 266.417969 Z M 75.546875 236.417969 " style="fill-rule: nonzero;" fill="#ffffff" fill-opacity="1" data-original-color="#000000ff" stroke="none" stroke-opacity="1"/>
<path d="M 75.546875 297.417969 L 210.421875 297.417969 L 210.421875 327.417969 L 75.546875 327.417969 Z M 75.546875 297.417969 " style="fill-rule: nonzero;" fill="#ffffff" fill-opacity="1" data-original-color="#000000ff" stroke="none" stroke-opacity="1"/>
<path d="M 339.839844 287.328125 C 336.898438 287.328125 333.980469 287.441406 331.089844 287.671875 L 331.089844 0 L 93.53125 0 L 0 93.519531 L 0 444.28125 L 236.761719 444.28125 C 254.039062 484.089844 293.738281 512 339.839844 512 C 401.78125 512 452.179688 461.609375 452.179688 399.671875 C 452.179688 337.730469 401.78125 287.328125 339.839844 287.328125 Z M 339.839844 482 C 310.871094 482 285.351562 466.960938 270.679688 444.28125 C 264.871094 435.320312 260.761719 425.171875 258.808594 414.28125 C 257.949219 409.53125 257.511719 404.648438 257.511719 399.671875 C 257.511719 368.269531 275.171875 340.921875 301.089844 327.039062 C 310.199219 322.148438 320.339844 318.929688 331.089844 317.800781 C 333.96875 317.488281 336.890625 317.328125 339.839844 317.328125 C 385.238281 317.328125 422.179688 354.269531 422.179688 399.671875 C 422.179688 445.070312 385.238281 482 339.839844 482 Z M 98.003906 37.945312 L 98.003906 98 L 37.949219 98 Z M 30 414.28125 L 30 128 L 128.003906 128 L 128.003906 30 L 301.089844 30 L 301.089844 294.21875 C 258.179688 310.039062 227.511719 351.339844 227.511719 399.671875 C 227.511719 404.621094 227.828125 409.5 228.460938 414.28125 Z M 30 414.28125 " style="fill-rule: nonzero;" fill="#ffffff" fill-opacity="1" data-original-color="#000000ff" stroke="none" stroke-opacity="1"/>
<path d="M 354.839844 384.671875 L 354.839844 340.871094 L 324.839844 340.871094 L 324.839844 414.671875 L 383.179688 414.671875 L 383.179688 384.671875 Z M 354.839844 384.671875 " style="fill-rule: nonzero;" fill="#ffffff" fill-opacity="1" data-original-color="#000000ff" stroke="none" stroke-opacity="1"/>
</g></g></svg>