<svg xmlns="http://www.w3.org/2000/svg" viewBox="0 0 24 24" role="img" aria-labelledby="title">
  <title id="title">Adjust player balance</title>
  <path d="M4 7.5h13.5A2.5 2.5 0 0 1 20 10v7a2 2 0 0 1-2 2H5a2 2 0 0 1-2-2V8.5A1.5 1.5 0 0 1 4.5 7H17" fill="none" stroke="#69FAFF" stroke-width="1.7" stroke-linecap="round" stroke-linejoin="round"/>
  <path d="M4.5 7 15 4.5c1.1-.3 2 .5 2 1.5v1" fill="none" stroke="#FF6700" stroke-width="1.7" stroke-linecap="round"/>
  <path d="M15.5 12H20v3h-4.5a1.5 1.5 0 0 1 0-3Z" fill="none" stroke="#69FAFF" stroke-width="1.7"/>
  <circle cx="16" cy="13.5" r=".7" fill="#FF6700"/>
</svg>
