<svg xmlns="http://www.w3.org/2000/svg" viewBox="0 0 24 24" role="img" aria-labelledby="title">
  <title id="title">Player settings</title>
  <path d="M12 3.5 13.2 5l2-.2.8 1.8 1.9.7-.2 2 1.5 1.2-1 1.8 1 1.8-1.5 1.2.2 2-1.9.7-.8 1.8-2-.2L12 21l-1.2-1.5-2 .2-.8-1.8-1.9-.7.2-2-1.5-1.2 1-1.8-1-1.8 1.5-1.2-.2-2L8 6.6l.8-1.8 2 .2L12 3.5Z" fill="none" stroke="#69FAFF" stroke-width="1.5" stroke-linejoin="round"/>
  <circle cx="12" cy="12.2" r="3" fill="none" stroke="#FF6700" stroke-width="1.7"/>
</svg>
