<svg xmlns="http://www.w3.org/2000/svg" viewBox="0 0 100 100" aria-hidden="true">
  <path fill="currentColor" fill-rule="evenodd" d="M 36.62 86.62 L 35.21 86.62 L 34.51 85.92 L 34.51 84.51 L 33.10 83.10 L 33.10 56.34 L 32.39 55.63 L 14.08 55.63 L 11.97 53.52 L 11.97 50.70 L 14.79 47.89 L 14.79 46.48 L 16.20 45.07 L 16.20 43.66 L 19.01 40.85 L 19.01 39.44 L 20.42 38.03 L 20.42 36.62 L 23.24 33.80 L 23.24 32.39 L 24.65 30.99 L 24.65 29.58 L 26.06 28.17 L 26.06 26.76 L 28.87 23.94 L 28.87 22.54 L 30.28 21.13 L 30.28 19.72 L 31.69 18.31 L 31.69 16.90 L 33.10 15.49 L 33.10 14.08 L 35.21 11.97 L 38.73 15.49 L 38.73 49.30 L 39.44 50.00 L 47.89 50.00 L 51.41 53.52 L 51.41 57.75 L 52.82 59.15 L 52.82 63.38 L 54.23 64.79 L 54.23 66.20 L 55.63 67.61 L 55.63 69.01 L 60.56 73.94 L 63.38 73.94 L 64.79 75.35 L 70.42 75.35 L 71.83 73.94 L 74.65 73.94 L 84.51 64.08 L 85.92 64.08 L 86.62 64.79 L 85.21 66.20 L 85.21 69.01 L 83.80 70.42 L 83.80 71.83 L 76.06 79.58 L 73.24 79.58 L 71.83 80.99 L 61.97 80.99 L 60.56 79.58 L 59.15 79.58 L 57.75 78.17 L 56.34 78.17 L 50.00 71.83 L 50.00 70.42 L 48.59 69.01 L 48.59 67.61 L 47.18 66.20 L 47.18 61.97 L 45.77 60.56 L 45.77 56.34 L 45.07 55.63 L 39.44 55.63 L 38.73 56.34 L 38.73 80.28 L 37.32 81.69 L 37.32 85.92 L 36.62 86.62 Z M 33.10 49.30 L 33.10 47.89 L 31.69 46.48 L 31.69 32.39 L 30.99 31.69 L 30.28 32.39 L 30.28 33.80 L 28.87 35.21 L 28.87 36.62 L 27.46 38.03 L 27.46 39.44 L 24.65 42.25 L 24.65 43.66 L 23.24 45.07 L 23.24 46.48 L 20.42 49.30 L 21.13 50.00 L 32.39 50.00 L 33.10 49.30 Z"/>
</svg>
