<svg xmlns="http://www.w3.org/2000/svg" width="512" height="512" viewBox="0 0 512 512" role="img" aria-label="Classroom Economy logo">
  <defs>
    <linearGradient id="navy" x1="110" y1="130" x2="330" y2="380" gradientUnits="userSpaceOnUse">
      <stop offset="0" stop-color="#021b39"/>
      <stop offset="1" stop-color="#00152e"/>
    </linearGradient>
    <linearGradient id="teal" x1="198" y1="366" x2="381" y2="266" gradientUnits="userSpaceOnUse">
      <stop offset="0" stop-color="#006b67"/>
      <stop offset="1" stop-color="#06998e"/>
    </linearGradient>
    <linearGradient id="gold" x1="150" y1="394" x2="418" y2="207" gradientUnits="userSpaceOnUse">
      <stop offset="0" stop-color="#d99a10"/>
      <stop offset="1" stop-color="#f5bd23"/>
    </linearGradient>
  </defs>

  <rect x="48" y="48" width="416" height="416" rx="78" fill="#ffffff" stroke="#e5e7eb" stroke-width="4"/>

  <g fill="url(#navy)">
    <path d="M123 277 H149 V342 L123 348 Z"/>
    <path d="M118 243 H164 L155 263 H127 Z"/>
    <path d="M122 235 C141 163 196 112 268 112 C340 112 395 163 414 235 H385 C368 181 324 142 268 142 C212 142 168 181 151 235 Z"/>
    <path d="M173 235 L268 185 L363 235 Z"/>
    <path d="M186 247 H350 V266 H186 Z"/>
    <path d="M196 279 H227 L219 376 L196 389 Z"/>
    <path d="M245 279 H276 L269 346 L245 359 Z"/>
    <path d="M295 279 H326 L319 315 L295 329 Z"/>
  </g>

  <g fill="url(#teal)">
    <path d="M164 405 H226 V377 C205 388 184 397 164 405 Z"/>
    <path d="M238 405 H283 V343 C269 353 254 362 238 371 Z"/>
    <path d="M296 405 H345 V308 C330 321 314 333 296 345 Z"/>
    <path d="M359 405 H399 V260 C386 279 372 294 359 308 Z"/>
  </g>

  <path d="M141 394 C241 374 337 304 402 222" fill="none" stroke="#ffffff" stroke-width="25" stroke-linecap="round"/>
  <path d="M139 394 C243 374 342 303 407 217" fill="none" stroke="url(#gold)" stroke-width="15" stroke-linecap="round"/>
  <path d="M363 209 L426 194 L415 258 Z" fill="url(#gold)"/>
</svg>
