<svg xmlns="http://www.w3.org/2000/svg" viewBox="0 0 100 100" role="img" aria-hidden="true" focusable="false"><path fill="#9decfa" d="M 53.01 88.55 L 51.81 88.55 L 47.59 84.34 L 47.59 81.93 L 46.39 80.72 L 46.39 68.67 L 45.78 68.07 L 32.53 68.07 L 31.33 66.87 L 30.12 66.87 L 29.52 66.27 L 29.52 65.06 L 30.12 64.46 L 32.53 64.46 L 33.73 63.25 L 45.78 63.25 L 46.39 62.65 L 46.39 50.60 L 45.18 49.40 L 45.18 39.76 L 44.58 39.16 L 43.37 39.16 L 42.17 37.95 L 39.76 37.95 L 38.55 36.75 L 37.35 36.75 L 36.14 35.54 L 34.94 35.54 L 31.33 31.93 L 30.12 31.93 L 24.70 26.51 L 24.70 25.30 L 22.29 22.89 L 22.29 20.48 L 21.08 19.28 L 21.08 16.87 L 19.88 15.66 L 19.88 14.46 L 21.69 12.65 L 24.10 12.65 L 25.90 14.46 L 25.90 16.87 L 27.11 18.07 L 27.11 19.28 L 30.72 22.89 L 30.72 24.10 L 32.53 25.90 L 33.73 25.90 L 37.35 29.52 L 38.55 29.52 L 39.76 30.72 L 40.96 30.72 L 42.17 31.93 L 44.58 31.93 L 45.18 31.33 L 45.18 8.43 L 46.99 6.63 L 49.40 6.63 L 51.20 8.43 L 51.20 32.53 L 51.81 33.13 L 56.63 33.13 L 57.83 31.93 L 59.04 31.93 L 60.24 30.72 L 61.45 30.72 L 69.28 22.89 L 69.28 21.69 L 70.48 20.48 L 70.48 19.28 L 71.69 18.07 L 71.69 16.87 L 72.89 15.66 L 72.89 13.25 L 74.10 12.05 L 74.10 10.84 L 74.70 10.24 L 75.90 10.24 L 77.71 12.05 L 77.71 14.46 L 76.51 15.66 L 76.51 18.07 L 75.30 19.28 L 75.30 21.69 L 72.89 24.10 L 72.89 25.30 L 71.69 26.51 L 71.69 27.71 L 62.65 36.75 L 61.45 36.75 L 60.24 37.95 L 59.04 37.95 L 57.83 39.16 L 53.01 39.16 L 51.20 40.96 L 51.20 62.65 L 51.81 63.25 L 56.63 63.25 L 57.83 62.05 L 67.47 62.05 L 68.07 62.65 L 68.07 63.86 L 69.28 65.06 L 69.28 66.27 L 66.27 69.28 L 51.81 69.28 L 51.20 69.88 L 51.20 83.13 L 52.41 84.34 L 52.41 85.54 L 53.61 86.75 L 53.61 87.95 L 53.01 88.55 Z"/></svg>
