<svg xmlns="http://www.w3.org/2000/svg" viewBox="0 0 100 100" role="img" aria-hidden="true" focusable="false"><path fill="#9decfa" d="M 52.50 88.12 L 50.00 88.12 L 48.12 86.25 L 48.12 75.00 L 47.50 74.38 L 37.50 74.38 L 36.25 73.12 L 35.00 73.12 L 34.38 72.50 L 34.38 71.25 L 36.25 69.38 L 43.75 69.38 L 45.00 68.12 L 47.50 68.12 L 48.12 67.50 L 48.12 62.50 L 47.50 61.88 L 37.50 61.88 L 36.25 60.62 L 35.00 60.62 L 33.12 58.75 L 36.25 55.62 L 47.50 55.62 L 48.12 55.00 L 46.88 53.75 L 46.88 26.25 L 46.25 25.62 L 45.62 26.25 L 45.62 28.75 L 44.38 30.00 L 44.38 32.50 L 43.12 33.75 L 43.12 36.25 L 41.88 37.50 L 41.88 38.75 L 41.25 39.38 L 37.50 39.38 L 36.88 38.75 L 36.88 35.00 L 38.12 33.75 L 38.12 31.25 L 39.38 30.00 L 39.38 28.75 L 40.62 27.50 L 40.62 25.00 L 41.88 23.75 L 41.88 22.50 L 43.12 21.25 L 43.12 20.00 L 44.38 18.75 L 44.38 17.50 L 45.62 16.25 L 45.62 15.00 L 46.88 13.75 L 46.88 12.50 L 48.75 10.62 L 51.25 10.62 L 51.88 11.25 L 51.88 12.50 L 54.37 15.00 L 54.37 16.25 L 55.62 17.50 L 55.62 18.75 L 58.13 21.25 L 58.13 22.50 L 59.38 23.75 L 59.38 25.00 L 60.62 26.25 L 60.62 28.75 L 61.88 30.00 L 61.88 31.25 L 63.12 32.50 L 63.12 33.75 L 64.38 35.00 L 64.38 38.75 L 62.50 40.62 L 60.00 40.62 L 56.88 37.50 L 56.88 35.00 L 55.62 33.75 L 55.62 31.25 L 54.37 30.00 L 54.37 28.75 L 53.12 27.50 L 53.12 25.00 L 52.50 24.38 L 51.88 25.00 L 51.88 30.00 L 53.12 31.25 L 53.12 53.75 L 53.75 54.37 L 62.50 54.37 L 64.38 56.25 L 64.38 57.50 L 63.12 58.75 L 63.12 60.00 L 62.50 60.62 L 58.75 60.62 L 57.50 61.88 L 55.00 61.88 L 54.37 62.50 L 54.37 67.50 L 55.00 68.12 L 63.75 68.12 L 64.38 68.75 L 64.38 70.00 L 65.62 71.25 L 64.38 72.50 L 64.38 73.75 L 63.75 74.38 L 55.00 74.38 L 54.37 75.00 L 54.37 86.25 L 52.50 88.12 Z"/></svg>