<svg xmlns="http://www.w3.org/2000/svg" viewBox="0 0 100 100" role="img" aria-hidden="true" focusable="false"><path fill="#9decfa" d="M 65.71 86.43 L 57.14 86.43 L 55.71 85.00 L 54.29 85.00 L 52.86 83.57 L 51.43 83.57 L 50.00 82.14 L 48.57 82.14 L 39.29 72.86 L 39.29 71.43 L 37.86 70.00 L 37.86 68.57 L 36.43 67.14 L 36.43 65.71 L 35.00 64.29 L 35.00 48.57 L 36.43 47.14 L 36.43 44.29 L 37.86 42.86 L 37.86 41.43 L 39.29 40.00 L 39.29 38.57 L 38.57 37.86 L 21.43 37.86 L 20.71 38.57 L 20.71 52.86 L 22.14 54.29 L 22.14 68.57 L 23.57 70.00 L 23.57 71.43 L 22.14 72.86 L 22.14 74.29 L 21.43 75.00 L 17.14 75.00 L 15.00 72.86 L 15.00 61.43 L 13.57 60.00 L 13.57 27.14 L 15.00 25.71 L 15.00 15.71 L 16.43 14.29 L 16.43 12.86 L 17.14 12.14 L 18.57 12.14 L 20.71 14.29 L 20.71 31.43 L 21.43 32.14 L 28.57 32.14 L 30.00 30.71 L 44.29 30.71 L 45.71 29.29 L 48.57 29.29 L 52.14 32.86 L 52.14 35.71 L 49.29 38.57 L 49.29 40.00 L 47.86 41.43 L 47.86 42.86 L 46.43 44.29 L 46.43 45.71 L 45.00 47.14 L 45.00 50.00 L 43.57 51.43 L 43.57 61.43 L 45.00 62.86 L 45.00 64.29 L 46.43 65.71 L 46.43 67.14 L 49.29 70.00 L 49.29 71.43 L 52.86 75.00 L 54.29 75.00 L 57.14 77.86 L 60.00 77.86 L 61.43 79.29 L 64.29 79.29 L 65.71 77.86 L 68.57 77.86 L 76.43 70.00 L 76.43 68.57 L 77.86 67.14 L 77.86 64.29 L 79.29 62.86 L 79.29 61.43 L 77.86 60.00 L 77.86 58.57 L 77.14 57.86 L 75.71 57.86 L 67.86 65.71 L 67.86 67.14 L 65.71 69.29 L 64.29 69.29 L 63.57 68.57 L 63.57 64.29 L 65.00 62.86 L 65.00 60.00 L 66.43 58.57 L 66.43 57.14 L 71.43 52.14 L 72.86 52.14 L 74.29 50.71 L 78.57 50.71 L 83.57 55.71 L 83.57 62.86 L 82.14 64.29 L 82.14 68.57 L 80.71 70.00 L 80.71 71.43 L 79.29 72.86 L 79.29 74.29 L 77.86 75.71 L 77.86 77.14 L 71.43 83.57 L 70.00 83.57 L 68.57 85.00 L 67.14 85.00 L 65.71 86.43 Z"/></svg>