<svg xmlns="http://www.w3.org/2000/svg" viewBox="0 0 100 100" role="img" aria-hidden="true" focusable="false"><path fill="#9decfa" d="M 45.98 89.08 L 44.83 89.08 L 43.68 87.93 L 42.53 87.93 L 41.95 87.36 L 41.95 73.56 L 40.23 71.84 L 35.63 71.84 L 34.48 70.69 L 29.89 70.69 L 28.74 69.54 L 27.59 69.54 L 25.86 67.82 L 25.86 66.67 L 26.44 66.09 L 27.59 66.09 L 28.74 64.94 L 29.89 66.09 L 39.08 66.09 L 40.23 67.24 L 41.38 67.24 L 41.95 66.67 L 41.95 65.52 L 43.10 64.37 L 43.10 40.23 L 42.53 39.66 L 40.23 41.95 L 39.08 41.95 L 37.93 43.10 L 35.63 43.10 L 34.48 44.25 L 28.74 44.25 L 27.59 43.10 L 25.29 43.10 L 21.26 39.08 L 21.26 36.78 L 20.11 35.63 L 20.11 28.74 L 21.26 27.59 L 21.26 25.29 L 22.41 24.14 L 22.41 22.99 L 26.44 18.97 L 33.33 18.97 L 36.21 21.84 L 36.21 25.29 L 35.63 25.86 L 34.48 25.86 L 33.33 24.71 L 32.18 24.71 L 31.03 23.56 L 29.89 23.56 L 28.16 25.29 L 28.16 26.44 L 27.01 27.59 L 27.01 29.89 L 25.86 31.03 L 25.86 33.33 L 27.01 34.48 L 27.01 35.63 L 28.74 37.36 L 34.48 37.36 L 35.63 36.21 L 36.78 36.21 L 43.10 29.89 L 43.10 28.74 L 44.25 27.59 L 44.25 18.39 L 45.40 17.24 L 45.40 8.05 L 46.55 6.90 L 46.55 4.60 L 47.13 4.02 L 49.43 4.02 L 51.15 5.75 L 51.15 29.89 L 52.87 31.61 L 54.02 31.61 L 55.17 32.76 L 56.32 32.76 L 57.47 33.91 L 58.62 33.91 L 59.77 35.06 L 63.22 35.06 L 64.37 36.21 L 65.52 35.06 L 68.97 35.06 L 71.84 32.18 L 71.84 27.59 L 70.11 25.86 L 68.97 25.86 L 67.24 27.59 L 67.24 28.74 L 64.37 31.61 L 62.07 31.61 L 59.20 28.74 L 59.20 26.44 L 60.34 25.29 L 60.34 24.14 L 65.52 18.97 L 72.41 18.97 L 73.56 20.11 L 74.71 20.11 L 77.59 22.99 L 77.59 24.14 L 78.74 25.29 L 78.74 33.33 L 77.59 34.48 L 77.59 35.63 L 72.41 40.80 L 71.26 40.80 L 70.11 41.95 L 58.62 41.95 L 57.47 40.80 L 56.32 40.80 L 55.17 39.66 L 52.87 39.66 L 51.72 38.51 L 51.15 39.08 L 51.15 42.53 L 50.00 43.68 L 50.00 65.52 L 50.57 66.09 L 54.02 66.09 L 55.17 64.94 L 58.62 64.94 L 60.34 66.67 L 60.34 70.11 L 58.62 71.84 L 54.02 71.84 L 52.87 72.99 L 50.57 72.99 L 50.00 73.56 L 50.00 78.16 L 48.85 79.31 L 48.85 87.36 L 48.28 87.93 L 47.13 87.93 L 45.98 89.08 Z"/></svg>