<svg xmlns="http://www.w3.org/2000/svg" viewBox="0 0 100 100" role="img" aria-hidden="true" focusable="false"><path fill="#9decfa" d="M 55.41 81.76 L 52.70 81.76 L 50.68 79.73 L 50.68 78.38 L 49.32 77.03 L 57.43 68.92 L 56.76 68.24 L 20.27 68.24 L 18.24 66.22 L 18.24 62.16 L 20.27 60.14 L 21.62 60.14 L 29.05 52.70 L 29.05 51.35 L 35.81 44.59 L 35.81 43.24 L 39.86 39.19 L 39.86 37.84 L 41.22 36.49 L 41.22 28.38 L 39.86 27.03 L 39.86 25.68 L 39.19 25.00 L 37.84 25.00 L 36.49 23.65 L 35.14 23.65 L 33.78 22.30 L 29.73 22.30 L 28.38 23.65 L 22.97 23.65 L 21.62 25.00 L 18.92 25.00 L 17.57 26.35 L 16.22 26.35 L 12.84 29.73 L 12.84 35.14 L 14.19 36.49 L 14.19 37.84 L 15.54 39.19 L 15.54 40.54 L 14.86 41.22 L 12.16 41.22 L 8.78 37.84 L 8.78 36.49 L 7.43 35.14 L 7.43 28.38 L 8.78 27.03 L 8.78 25.68 L 11.49 22.97 L 11.49 21.62 L 12.16 20.95 L 13.51 20.95 L 16.22 18.24 L 18.92 18.24 L 20.27 16.89 L 22.97 16.89 L 24.32 15.54 L 37.84 15.54 L 39.19 16.89 L 40.54 16.89 L 41.89 18.24 L 43.24 18.24 L 47.97 22.97 L 47.97 24.32 L 49.32 25.68 L 49.32 37.84 L 47.97 39.19 L 47.97 40.54 L 46.62 41.89 L 46.62 43.24 L 45.27 44.59 L 45.27 45.95 L 39.86 51.35 L 39.86 52.70 L 33.11 59.46 L 33.78 60.14 L 63.51 60.14 L 65.54 58.11 L 65.54 56.76 L 68.24 54.05 L 68.24 52.70 L 69.59 51.35 L 69.59 50.00 L 70.95 48.65 L 70.95 47.30 L 72.30 45.95 L 72.30 44.59 L 72.97 43.92 L 75.68 43.92 L 76.35 44.59 L 76.35 50.00 L 75.00 51.35 L 75.00 54.05 L 73.65 55.41 L 73.65 56.76 L 72.30 58.11 L 72.30 59.46 L 72.97 60.14 L 82.43 60.14 L 83.78 61.49 L 86.49 61.49 L 87.16 62.16 L 87.16 66.22 L 86.49 66.89 L 85.14 66.89 L 83.78 68.24 L 66.22 68.24 L 64.19 70.27 L 64.19 71.62 L 58.78 77.03 L 58.78 78.38 L 55.41 81.76 Z"/></svg>