<svg height="300" viewBox="0 0 24 24" width="300" xmlns="http://www.w3.org/2000/svg" version="1.1" xmlns:xlink="http://www.w3.org/1999/xlink" xmlns:svgjs="http://svgjs.dev/svgjs"><g width="100%" height="100%" transform="matrix(1,0,0,1,0,0)"><path d="m20 3a1 1 0 0 1 1 1v2.5h-4v-2.5a1 1 0 0 1 1-1zm-15 18h14a2 2 0 0 0 2-2v-11.5h-4v3.5h-4v-1.2615a.5.5 0 0 0 -.6857-.4642l-4.3143 1.7257v-1.2615a.5.5 0 0 0 -.6857-.4643l-3.0571 1.2229a2 2 0 0 0 -1.2572 1.8568v6.6461a2 2 0 0 0 2 2z" fill="#9decfa" fill-opacity="0.96" data-original-color="#9decfaff" stroke="none" stroke-opacity="1"/></g></svg>