<svg id="Layer_1" enable-background="new 0 0 128 128" viewBox="0 0 128 128" xmlns="http://www.w3.org/2000/svg" width="300" height="300" version="1.1" xmlns:xlink="http://www.w3.org/1999/xlink" xmlns:svgjs="http://svgjs.dev/svgjs"><g width="100%" height="100%" transform="matrix(1,0,0,1,0,0)"><g fill="#9decfa"><path d="m76.6 5.4h-6.2v10.8l-34.3 19.3v13.4h-30c-2.6 0-4.7 2.1-4.7 4.7v68.9h75.2zm-40.5 107.2h-22.9v-12.4h22.9zm0-19.9h-22.9v-12.4h22.9zm0-19.9h-22.9v-12.4h22.9zm29.6 41.3h-18.7v-5.7h18.7zm0-16.1h-18.7v-5.7h18.7zm0-16.1h-18.7v-5.7h18.7zm0-16.2h-18.7v-5.7h18.7zm0-16.1h-18.7v-5.7h18.7z" fill="#9decfa" fill-opacity="0.96" data-original-color="#343433ff" stroke="none" stroke-opacity="1"/><path d="m118.8 63.4c-3.3-2.4-7-4-10.5-5.5-3.2-1.4-5.7-2.7-7.9-4.1-3.3-2.1-3.5-5.3-3.2-7.6.5-3 2.3-5.1 5.5-6.2s6.5-.8 9.6-.3c2.7.5 5.3 1.4 7.7 2.8l.9.5 1-2.5c.7-1.6 1.3-3.2 1.9-4.8.3-.7-.3-1.8-.9-2l-1.2-.6c-1.4-.7-2.9-1.4-4.5-1.8-1.7-.4-3.4-.7-5.1-1-.5-.1-1-.2-1.5-.2v-9.9h-8.2v10.4l-.7.2c-3.3.8-6.3 2.1-8.8 4.1-4 3.1-6.4 8-6.5 13.2-.1 4.9 2 9.4 5.7 12.4 2.9 2.4 6.3 4.3 11.1 6.2 3.2 1.3 6.1 2.5 8.6 4.5 2.9 2.3 4.3 5.7 3.8 9-.5 3.2-2.6 5.8-5.8 7.1-1.6.6-3.4 1-5.3 1.1-4.6.2-9.1-.9-13.8-3.4l-2.5-1.4-1 2.8c-.5 1.4-1 2.7-1.5 4.1-.4 1.1-.1 1.9.9 2.5 2.7 1.6 5.5 2.7 8.5 3.3 1.6.3 3.1.5 4.8.7.5.1.9.1 1.4.2v10.3h8.7v-10.6c.4-.1.8-.2 1.2-.3 1.3-.4 2.6-.7 3.8-1.3 6.7-2.9 10.6-7.7 11.5-14.4.9-7.3-1.7-13.2-7.7-17.5z" fill="#9decfa" fill-opacity="0.96" data-original-color="#343433ff" stroke="none" stroke-opacity="1"/></g></g></svg>