<svg id="Layer_1" enable-background="new 0 0 68 68" viewBox="0 0 68 68" xmlns="http://www.w3.org/2000/svg" width="300" height="300" version="1.1" xmlns:xlink="http://www.w3.org/1999/xlink" xmlns:svgjs="http://svgjs.dev/svgjs"><g width="100%" height="100%" transform="matrix(1,0,0,1,0,0)"><g><path d="m65.23887 33.58984h-11.97998c-.17993 1.12012 0 5.79004-2.70996 10.31006-3.13013 5.22021-8.65015 8.82031-15.05005 9.31006v11.99024c16.7002-.78027 29.95019-14.66016 29.75-31.6001-.01001 0-.01001 0-.01001-.01026z" fill="#9decfa" fill-opacity="0.96"/><path d="m53.1688 32.08984h12.01025c-.4502-7.42969-3.49023-14.15967-8.25-19.29004l-8.47021 8.47021c2.6001 2.9502 4.30005 6.68995 4.70996 10.81983z" fill="#9decfa" fill-opacity="0.96"/><path d="m55.88902 11.71484c-5.63721-5.53418-13.3606-8.95313-21.88672-8.95459v11.96729c5.22168.00098 9.94824 2.08447 13.41797 5.45361z" fill="#9decfa" fill-opacity="0.96"/><path d="m20.17417 47.41797-8.46851 8.46631c5.67114 5.77197 13.56323 9.35547 22.29224 9.35547h.00439v-11.96729c-.00146 0-.00293 0-.00439 0-5.4248 0-10.31933-2.24805-13.82373-5.85449z" fill="#9decfa" fill-opacity="0.96"/><path d="m32.49888 14.79004v-11.99024c-17.06259 1.06271-28.78089 14.29096-29.67993 29.29004h12.01001c.92129-9.27357 8.36985-16.58005 17.66992-17.2998z" fill="#9decfa" fill-opacity="0.96"/><path d="m14.71885 34c0-.13965.02002-.27002.02002-.41016h-11.97998c0 .14014-.01001.27051-.01001.41016 0 11.1499 5.62012 18.12988 7.95996 20.76025l8.47021-8.47021c-2.79003-3.33008-4.4602-7.60986-4.4602-12.29004z" fill="#9decfa" fill-opacity="0.96"/><path d="m23.05992 38.58447v4.40088c0 .41406.33594.75.75.75s.75-.33594.75-.75v-4.40088c0-.41455-.33594-.75-.75-.75s-.75.33545-.75.75zM29.85191 31.64551v11.33984c0 .41406.33594.75.75.75s.75-.33594.75-.75v-11.33984c0-.41406-.33594-.75-.75-.75s-.75.33594-.75.75zM36.64341 35.31934v7.66602c0 .41406.33594.75.75.75s.75-.33594.75-.75v-7.66602c0-.41455-.33594-.75-.75-.75s-.75.33545-.75.75zM44.18492 43.73535c.41406 0 .75-.33594.75-.75v-3.45801c0-.41455-.33594-.75-.75-.75s-.75.33545-.75.75v3.45801c0 .41406.33593.75.75.75z" fill="#9decfa" fill-opacity="0.96"/><path d="m43.91099 27.47852c.01709.00098.03467.00146.05225.00146.39063 0 .72021-.30273.74707-.69873l.22314-3.2417c.02536-.37626-.26225-.76648-.69238-.79834-.00146-.00049-.00293-.00146-.00439-.00146l-3.24268-.22315c-.39111-.0293-.771.2832-.79932.69678-.02881.41357.2832.771.69678.7998l1.39795.09619-4.97412 4.21191-6.33252-3.72998c-.27783-.16309-.62793-.13184-.87158.0791l-6.79199 5.875c-.31299.271-.34766.74463-.07666 1.05811.26998.31083.7438.34836 1.05811.07617l6.38477-5.52246 6.32715 3.72656c.2749.16162.62158.13281.86572-.07373l5.43701-4.60303-.10107 1.47168c-.02882.4131.28319.77101.69676.79982z" fill="#9decfa" fill-opacity="0.96"/></g></g></svg>