<svg xmlns="http://www.w3.org/2000/svg" viewBox="0 0 64 64" role="img" aria-label="Player settings gear icon">
  <title>Player settings</title>
  <g fill="none" stroke="#9FEAFF" stroke-width="4" stroke-linecap="round" stroke-linejoin="round">
    <path d="M29.1 9.8h5.8l1.4 6.1c1.8.5 3.5 1.2 5 2.1l5.3-3.3 4.1 4.1-3.3 5.3c.9 1.6 1.6 3.2 2.1 5l6.1 1.4v5.8l-6.1 1.4c-.5 1.8-1.2 3.5-2.1 5l3.3 5.3-4.1 4.1-5.3-3.3c-1.6.9-3.2 1.6-5 2.1l-1.4 6.1h-5.8l-1.4-6.1c-1.8-.5-3.5-1.2-5-2.1l-5.3 3.3-4.1-4.1 3.3-5.3c-.9-1.6-1.6-3.2-2.1-5l-6.1-1.4v-5.8l6.1-1.4c.5-1.8 1.2-3.5 2.1-5l-3.3-5.3 4.1-4.1 5.3 3.3c1.6-.9 3.2-1.6 5-2.1l1.4-6.1z" opacity=".96"/>
    <circle cx="32" cy="32" r="8.4" opacity=".98"/>
  </g>
</svg>
