<svg xmlns="http://www.w3.org/2000/svg" viewBox="0 0 160 160" role="img" aria-label="Consumable image">
  <defs>
    <linearGradient id="g" x1="0" y1="0" x2="1" y2="1">
      <stop offset="0" stop-color="#291234"/>
      <stop offset="1" stop-color="#05070b"/>
    </linearGradient>
    <radialGradient id="r" cx=".38" cy=".28" r=".72">
      <stop offset="0" stop-color="#d58cff" stop-opacity=".45"/>
      <stop offset="1" stop-color="#d58cff" stop-opacity="0"/>
    </radialGradient>
    <filter id="glow" x="-30%" y="-30%" width="160%" height="160%">
      <feGaussianBlur stdDeviation="2.2" result="blur"/>
      <feMerge><feMergeNode in="blur"/><feMergeNode in="SourceGraphic"/></feMerge>
    </filter>
  </defs>
  <rect width="160" height="160" rx="22" fill="url(#g)"/>
  <rect width="160" height="160" rx="22" fill="url(#r)"/>
  <path d="M18 36 36 18h88l18 18v88l-18 18H36l-18-18Z" fill="none" stroke="#d58cff" stroke-opacity=".36" stroke-width="2"/>
  <path d="M42 101h76M42 116h55" stroke="#d58cff" stroke-opacity=".28" stroke-width="3" stroke-linecap="round"/>
  <g filter="url(#glow)">
    <path d="M52 55 80 38l28 17v34l-28 17-28-17Z" fill="#d58cff" fill-opacity=".12" stroke="#d58cff" stroke-width="3"/>
    <path d="M80 38v68M52 55l28 17 28-17" fill="none" stroke="#fff0a8" stroke-opacity=".72" stroke-width="2.5"/>
    <circle cx="80" cy="72" r="18" fill="#02050a" fill-opacity=".62" stroke="#fff0a8" stroke-width="2"/>
    <text x="80" y="80" text-anchor="middle" font-family="Inter, Arial, sans-serif" font-size="26" font-weight="900" fill="#fff0a8">C</text>
  </g>
  <text x="80" y="138" text-anchor="middle" font-family="Inter, Arial, sans-serif" font-size="10" font-weight="800" letter-spacing="1.6" fill="#e9fbff" fill-opacity=".72">CONSUMABLE</text>
</svg>